<svg width="511" height="501" viewBox="0 0 511 501" fill="none" xmlns="http://www.w3.org/2000/svg">
<path d="M189.45 424.871V399.229L455.057 401.716L427.502 452.044C419.388 464.75 405.24 468.947 399.18 469.458H308.284C310.836 449.811 304.763 409.983 260.062 407.84C215.36 405.696 203.291 446.622 202.845 467.353C174.983 466.281 173.631 438.585 176.437 424.871H189.45Z" fill="url(#paint0_linear_2719_1083)" stroke="url(#paint1_linear_2719_1083)"/>
<path d="M339.477 277.332V352.153H462.33C474.884 352.153 488.228 342.458 493.331 337.61L455.25 402.481L188.111 399.994C187.805 387.9 180.074 384.876 176.247 384.876C176.12 375.755 175.941 356.44 176.247 352.153C176.553 347.867 179.181 342.458 180.457 340.289L241.31 266.998C264.337 266.743 313.414 266.386 325.508 266.998C337.602 267.611 339.86 274.142 339.477 277.332Z" fill="url(#paint2_linear_2719_1083)"/>
<path d="M323.019 450.895C318.733 434.668 293.422 419.385 281.303 413.771C311.002 434.285 311.41 459.698 307.902 469.84H403.965C415.14 468.309 424.95 456.572 428.459 450.895H323.019Z" fill="#6E8502" stroke="#6E8502"/>
<circle cx="255.084" cy="459.89" r="30" stroke="black" stroke-width="21.5194"/>
<path d="M303.117 288.239V352.919H214.134C205.714 350.776 206.161 342.841 207.436 339.141L256.425 282.499C269.501 282.18 296.534 281.733 300.055 282.499C303.576 283.264 303.563 286.645 303.117 288.239Z" fill="black"/>
<rect x="279.004" y="380.092" width="21.4323" height="8.80256" rx="4.40128" fill="black"/>
<path d="M414.678 337.73L352.869 229.362L457.159 167.409L510.165 263.119C517.972 336.464 449.76 343.42 414.678 337.73Z" fill="#177212"/>
<path d="M253.388 82.5197L190.659 190.107L84.9852 130.693L141.177 37.0436C200.646 -6.30595 240.763 49.2987 253.388 82.5197Z" fill="#177212"/>
<path d="M155.9 466.496V347.642H113.53C91.3911 376.274 86.1108 399.126 86.2381 406.973C84.2532 445.711 116.457 462.795 132.807 466.496H155.9Z" fill="#177212"/>
<path d="M0 188.923H120.174L32.0221 341.504C27.3657 334.105 14.9644 316.063 6.6976 298.764C-1.56915 281.465 7.08032 262.597 12.4384 255.325L38.6547 209.399L0 188.923Z" fill="url(#paint3_linear_2719_1083)"/>
<path d="M73.2928 415.302L31.959 341.437L120.176 188.923L177.967 291.492L140.843 270.251C120.75 305.717 79.6459 378.408 75.9718 385.45C72.2977 392.492 72.6549 408.286 73.2928 415.302Z" fill="url(#paint4_linear_2719_1083)"/>
<path d="M446.924 61.1895L386.837 165.263L298.466 12.8433C307.202 12.5103 329.335 10.5791 348.45 12.0694C367.565 13.5596 379.58 30.4844 383.199 38.7604L409.864 84.4277L446.924 61.1895Z" fill="url(#paint5_linear_2719_1083)"/>
<path d="M214.228 11.4721L298.864 12.6085L386.837 165.264L269.114 164.027L306.071 142.498C285.404 107.364 243.003 35.4212 238.742 28.7183C234.48 22.0154 220.624 14.4279 214.228 11.4721Z" fill="url(#paint6_linear_2719_1083)"/>
<circle cx="256.829" cy="460.563" r="40.4367" fill="black"/>
<circle cx="256.829" cy="460.563" r="16.3933" fill="white"/>
<defs>
<linearGradient id="paint0_linear_2719_1083" x1="175.426" y1="434.343" x2="455.057" y2="434.343" gradientUnits="userSpaceOnUse">
<stop stop-color="#97B801"/>
<stop offset="1" stop-color="#80A500"/>
</linearGradient>
<linearGradient id="paint1_linear_2719_1083" x1="175.426" y1="434.343" x2="455.057" y2="434.343" gradientUnits="userSpaceOnUse">
<stop stop-color="#9ABA00"/>
<stop offset="1" stop-color="#81A600"/>
</linearGradient>
<linearGradient id="paint2_linear_2719_1083" x1="493.331" y1="335.447" x2="176.078" y2="333.694" gradientUnits="userSpaceOnUse">
<stop stop-color="#9DBC01"/>
<stop offset="1" stop-color="#80A601"/>
</linearGradient>
<linearGradient id="paint3_linear_2719_1083" x1="60.0871" y1="188.923" x2="60.0871" y2="342.585" gradientUnits="userSpaceOnUse">
<stop stop-color="#82A701"/>
<stop offset="1" stop-color="#9EBD00"/>
</linearGradient>
<linearGradient id="paint4_linear_2719_1083" x1="104.963" y1="188.923" x2="104.963" y2="415.302" gradientUnits="userSpaceOnUse">
<stop stop-color="#A4C200"/>
<stop offset="1" stop-color="#7DA300"/>
</linearGradient>
<linearGradient id="paint5_linear_2719_1083" x1="416.88" y1="113.226" x2="283.805" y2="36.3953" gradientUnits="userSpaceOnUse">
<stop stop-color="#82A701"/>
<stop offset="1" stop-color="#9EBD00"/>
</linearGradient>
<linearGradient id="paint6_linear_2719_1083" x1="394.443" y1="152.089" x2="198.393" y2="38.8992" gradientUnits="userSpaceOnUse">
<stop stop-color="#A4C200"/>
<stop offset="1" stop-color="#7DA300"/>
</linearGradient>
</defs>
</svg>
